<svg width="3596" height="1005" viewBox="0 0 3596 1005" fill="none" xmlns="http://www.w3.org/2000/svg">
<path fill-rule="evenodd" clip-rule="evenodd" d="M418.068 0.962724C244.063 13.4427 96.7256 135.144 54.3436 301.401C50.2426 317.491 46.1996 339.635 44.1206 357.401C42.1226 374.474 42.4456 425.884 44.6636 443.901C55.9666 535.702 96.7696 617.819 162.938 681.926C193.445 711.482 224.345 733.452 262.834 752.951C307.092 775.373 349.505 788.024 402.344 794.567C422.304 797.038 473.739 797.052 493.334 794.591C546.204 787.952 585.473 776.321 630.834 753.868C748.946 695.404 830.49 584.02 849.341 455.401C853.873 424.477 854.492 381.978 850.847 351.901C831.252 190.176 713.475 56.2267 553.334 13.5357C511.793 2.46173 461.869 -2.17928 418.068 0.962724ZM2242.33 425.992V780.083L2266.58 779.67C2288.43 779.297 2291.53 779.031 2297.83 776.979C2325.75 767.897 2346.38 746.154 2353.34 718.491C2355.31 710.676 2355.33 706.735 2355.33 391.241V71.9007H2298.83H2242.33V425.992ZM2430.33 425.992V780.083L2454.58 779.67C2476.43 779.297 2479.53 779.031 2485.83 776.979C2508 769.766 2526.05 754.367 2535.69 734.445C2540.08 725.355 2542.02 718.467 2543.29 707.37C2543.97 701.418 2544.32 593.011 2544.33 385.151L2544.33 71.9007H2487.33H2430.33V425.992ZM484.834 176.771C587.246 194.279 663.052 272.843 674.85 373.7C682.595 439.908 659.043 507.13 611.348 554.944C575.805 590.577 532.116 612.608 481.194 620.578C465.128 623.092 429.147 623.076 413.834 620.548C360.688 611.774 316.46 588.997 281.53 552.411C230.005 498.445 208.818 424.8 223.988 352.401C230.589 320.897 245.486 288.758 265.542 262.75C302.448 214.894 358.397 183.174 419.592 175.414C435.716 173.369 468.982 174.061 484.834 176.771ZM1382.83 311.033C1331.28 317.508 1284.75 342.026 1260 375.761L1255.33 382.121V351.511V320.901H1198.33H1141.33V662.491V1004.08L1166.08 1003.71C1190.79 1003.35 1190.85 1003.34 1199.56 1000.25C1225.37 991.093 1244.41 971.143 1252.54 944.73L1254.79 937.401L1255.09 828.581L1255.39 719.762L1260.03 726.081C1302.27 783.652 1397.21 807.581 1478.05 781.033C1510.51 770.374 1537.69 754.086 1561.71 730.901C1581.32 711.974 1595.24 692.902 1607.32 668.401C1621.46 639.739 1629.13 611.954 1632.44 577.401C1633.93 561.848 1633.04 523.929 1630.85 509.901C1624.99 472.332 1611.52 436.481 1592.54 407.901C1557.13 354.593 1500.91 319.953 1435.99 311.443C1423.23 309.769 1394.65 309.549 1382.83 311.033ZM1903.09 311.359C1788.41 325.871 1705.17 408.605 1692.26 520.901C1690.52 536.083 1690.77 567.816 1692.76 583.387C1698.22 626.185 1714.61 666.709 1739.54 699.052C1777.61 748.441 1835.03 780.74 1901.33 790.062C1915.88 792.108 1956.89 791.816 1971.33 789.565C2068.53 774.413 2143.72 710.441 2169.32 621.112C2176.07 597.596 2178.74 577.14 2178.69 549.401C2178.6 499.34 2166.19 456.219 2140.56 416.901C2118.26 382.71 2086.28 354.762 2047.83 335.869C2023.78 324.049 2000.28 316.635 1973.33 312.364C1959 310.092 1917.77 309.502 1903.09 311.359ZM2829.83 310.543C2791.57 314.904 2766.55 322.048 2737.3 336.957C2714.2 348.738 2695.74 362.467 2677.15 381.712C2641.86 418.235 2621.06 463.211 2614.17 517.901C2612.47 531.379 2612.45 569.257 2614.14 582.901C2618.88 621.179 2632.64 659.673 2652.02 688.901C2687.96 743.087 2745.14 778.752 2812.52 789C2829.53 791.586 2860.69 792.564 2876.83 791.019C2902.47 788.565 2926.53 783.277 2947.97 775.388C2971.79 766.623 3000.35 750.401 3018.27 735.457C3036.23 720.474 3061.9 690.08 3059.03 687.194C3058.37 686.53 3041.23 673.424 3020.94 658.068L2984.04 630.149L2978.95 636.275C2949.93 671.202 2902.55 690.721 2851.93 688.605C2786.96 685.889 2742.83 651.542 2729.91 593.651L2729.3 590.901H2907.21H3085.13L3085.95 576.151C3087.08 556.021 3086.83 528.579 3085.39 515.901C3078.11 451.602 3048.96 396.62 3002.62 359.792C2968.71 332.846 2928.99 316.703 2883.53 311.385C2872.23 310.063 2838.66 309.536 2829.83 310.543ZM3393.83 310.553C3338.23 319.284 3293.81 346.921 3273.62 385.347L3269.39 393.401L3269.36 357.151L3269.33 320.901H3212.33H3155.33V550.401V779.901H3212.3H3269.27L3269.61 648.151C3269.94 518.033 3269.97 516.283 3272.07 506.901C3277.26 483.765 3285.58 467.116 3299.19 452.677C3320.01 430.582 3351.51 417.901 3385.55 417.901C3405.83 417.901 3421.64 422.511 3437.31 432.991C3458 446.834 3471.05 467.324 3478.64 497.901C3480.72 506.305 3480.75 507.946 3481.07 643.151L3481.39 779.901H3538.39H3595.4L3595.06 634.151C3594.76 501.854 3594.57 487.34 3592.99 476.901C3589.06 450.88 3583.75 430.834 3575.75 411.836C3555.68 364.151 3519.28 331.248 3471.35 317.46C3453.99 312.465 3440.56 310.686 3417.83 310.372C3406.28 310.213 3395.48 310.294 3393.83 310.553ZM2886.33 414.24C2922.14 422.649 2947.84 441.918 2962.56 471.401C2966.59 479.482 2970.72 491.759 2972.31 500.401C2972.92 503.701 2973.63 507.414 2973.89 508.651L2974.37 510.901H2851.85C2784.47 510.901 2729.33 510.529 2729.33 510.074C2729.33 509.62 2730.71 504.332 2732.39 498.324C2738.11 477.885 2748.89 458.568 2761.94 445.392C2780.7 426.448 2804.69 415.528 2836.33 411.528C2838.26 411.285 2847.93 411.241 2857.83 411.43C2872.62 411.713 2877.71 412.214 2886.33 414.24ZM1410.31 417.445C1456.65 424.961 1496.49 459.767 1512.4 506.633C1517.8 522.535 1518.82 529.654 1518.82 551.401C1518.82 567.002 1518.42 573.219 1517.01 579.669C1511.52 604.695 1500.04 627.171 1483.77 644.744C1477.32 651.708 1465.48 661.502 1456.77 667.084C1445.9 674.041 1430.1 680.308 1415.33 683.514C1403.64 686.053 1377.23 686.115 1365.67 683.63C1325.7 675.04 1293.34 651.352 1273.15 615.901C1268.81 608.27 1263.34 593.388 1260.56 581.626C1258.18 571.555 1257.9 568.447 1257.89 551.401C1257.88 530.751 1258.91 523.639 1264.41 506.401C1278.94 460.856 1319.55 425.938 1367.83 417.482C1378.65 415.587 1398.74 415.57 1410.31 417.445ZM1962.93 418.773C2008.21 430.095 2042.68 461.377 2056.73 503.901C2061.94 519.691 2063.67 531.056 2063.7 549.901C2063.75 575.802 2059.25 595.932 2048.85 616.311C2014.08 684.464 1926.73 706.894 1862.44 664.179C1845.54 652.943 1827.71 631.898 1818.96 612.838C1802.88 577.803 1801.37 534.496 1814.98 498.419C1825.97 469.294 1848.08 444.141 1875 430.137C1885.02 424.921 1901.32 419.395 1912.43 417.447C1924.55 415.322 1952.01 416.043 1962.93 418.773ZM96.8336 784.028C56.7166 789.039 19.9236 818.157 6.36658 855.622C1.01658 870.41 -0.0284204 876.772 0.000579574 894.401C0.0235796 908.494 0.343578 911.593 2.68358 920.401C5.86558 932.374 14.2626 949.929 21.0976 958.901C27.3876 967.156 40.1446 979.34 48.2886 984.87C57.5346 991.15 71.9266 997.647 83.0566 1000.57C95.0586 1003.72 116.632 1004.82 129.498 1002.94C175.937 996.147 214.907 958.696 222.834 913.242C228.883 878.55 218.36 843.831 194.032 818.22C184.414 808.095 175.858 801.828 162.834 795.371C141.565 784.825 120.053 781.128 96.8336 784.028Z" fill="white"/>
</svg>